<?xml version="1.0" standalone="no"?>
<!DOCTYPE svg PUBLIC "-//W3C//DTD SVG 20010904//EN"
 "http://www.w3.org/TR/2001/REC-SVG-20010904/DTD/svg10.dtd">
<svg version="1.0" xmlns="http://www.w3.org/2000/svg"
 width="500.000000pt" height="500.000000pt" viewBox="0 0 500.000000 500.000000"
 preserveAspectRatio="xMidYMid meet">
<metadata>
Created by potrace 1.14, written by Peter Selinger 2001-2017
</metadata>
<g transform="translate(0.000000,500.000000) scale(0.100000,-0.100000)"
fill="#000000" stroke="none">
<path d="M1246 3126 c-680 -1031 -1236 -1883 -1236 -1893 0 -13 201 -137 762
-468 419 -247 787 -465 819 -483 l57 -32 464 65 c254 36 1002 142 1661 235
658 93 1202 172 1207 175 6 3 10 13 10 21 0 18 -2458 4235 -2474 4246 -6 4
-16 8 -22 8 -6 0 -567 -844 -1248 -1874z m1569 -316 c201 -36 363 -90 556
-183 321 -156 622 -419 741 -649 28 -55 32 -73 33 -143 0 -71 -4 -88 -32 -145
-88 -177 -311 -397 -553 -546 -536 -332 -1120 -403 -1708 -208 -353 116 -682
334 -859 568 -118 156 -158 309 -113 428 63 168 270 391 515 555 276 185 616
309 933 343 128 13 359 4 487 -20z"/>
<path d="M2385 2701 c-346 -57 -609 -279 -713 -601 -151 -464 114 -967 583
-1105 108 -32 281 -44 393 -26 190 30 372 127 503 269 107 116 184 267 215
422 27 134 16 316 -26 442 -76 228 -225 403 -435 508 -55 28 -136 60 -180 71
-89 23 -260 33 -340 20z m553 -385 c50 -34 92 -112 92 -171 0 -59 -42 -137
-92 -171 -32 -23 -54 -29 -107 -32 -82 -4 -138 22 -185 87 -28 39 -31 50 -31
116 0 65 3 78 30 117 44 63 103 90 186 86 53 -3 75 -9 107 -32z"/>
</g>
</svg>
